<?xml version="1.0" standalone="no"?>
<!DOCTYPE svg PUBLIC "-//W3C//DTD SVG 1.1//EN" "http://www.w3.org/Graphics/SVG/1.1/DTD/svg11.dtd" >
<svg xmlns="http://www.w3.org/2000/svg">
<metadata>Generated by IcoMoon</metadata>
<defs>
<font id="icomoon" horiz-adv-x="1024">
<font-face units-per-em="1024" ascent="960" descent="-64" />
<missing-glyph horiz-adv-x="1024" />
<glyph unicode="&#x20;" horiz-adv-x="512" d="" />
<glyph unicode="&#xe900;" glyph-name="line_add" d="M469.333 490.667h-213.333v-85.333h213.333v-213.333h85.333v213.333h213.333v85.333h-213.333v213.333h-85.333v-213.333zM1024 874.667v-853.333c0-47.128-38.205-85.333-85.333-85.333v0h-853.333c-47.128 0-85.333 38.205-85.333 85.333v0 853.333c0 47.128 38.205 85.333 85.333 85.333v0h853.333c47.128 0 85.333-38.205 85.333-85.333v0zM938.667 21.333v853.333h-853.333v-853.333z" />
<glyph unicode="&#xe901;" glyph-name="line_calendar" d="M597.333 832h-170.667v-89.6h170.667zM938.667 832h-85.333v-89.6h81.067v-716.8h-844.8v716.8h81.067v89.6h-85.333c-47.128 0-85.333-38.205-85.333-85.333v0-725.333c0-47.128 38.205-85.333 85.333-85.333v0h853.333c47.128 0 85.333 38.205 85.333 85.333v0 725.333c0 47.128-38.205 85.333-85.333 85.333v0zM341.333 960h-85.333v-256h85.333zM768 960h-85.333v-256h85.333zM341.333 576h-170.667v-170.667h170.667zM597.333 576h-170.667v-170.667h170.667zM853.333 576h-170.667v-170.667h170.667zM170.667 149.333h170.667v170.667h-170.667zM597.333 320h-170.667v-170.667h170.667zM853.333 320h-170.667v-170.667h170.667z" />
<glyph unicode="&#xe902;" glyph-name="line_clock" d="M512 960c-282.77 0-512-229.23-512-512s229.23-512 512-512c282.77 0 512 229.23 512 512v0c0 282.77-229.23 512-512 512v0zM512 21.333c-235.641 0-426.667 191.025-426.667 426.667s191.025 426.667 426.667 426.667c235.641 0 426.667-191.025 426.667-426.667v0c0-235.641-191.025-426.667-426.667-426.667v0zM640 469.333h-93.867l-12.8 12.8v179.2c0 11.782-9.551 21.333-21.333 21.333s-21.333-9.551-21.333-21.333v0-179.2c-12.663-5.181-21.422-17.406-21.422-31.678 0-0.864 0.032-1.72 0.095-2.568l-0.007 0.113c-0.171-1.361-0.269-2.937-0.269-4.535 0-21.208 17.192-38.4 38.4-38.4 1.598 0 3.174 0.098 4.721 0.287l-0.186-0.019c0.735-0.056 1.591-0.088 2.455-0.088 14.272 0 26.498 8.759 31.596 21.194l0.083 0.228h93.867c11.782 0 21.333 9.551 21.333 21.333s-9.551 21.333-21.333 21.333v0zM192 469.333h-42.667c-11.782 0-21.333-9.551-21.333-21.333s9.551-21.333 21.333-21.333v0h42.667c11.782 0 21.333 9.551 21.333 21.333s-9.551 21.333-21.333 21.333v0zM874.667 469.333h-42.667c-11.782 0-21.333-9.551-21.333-21.333s9.551-21.333 21.333-21.333v0h42.667c11.782 0 21.333 9.551 21.333 21.333s-9.551 21.333-21.333 21.333v0zM512 149.333c-11.782 0-21.333-9.551-21.333-21.333v0-42.667c0-11.782 9.551-21.333 21.333-21.333s21.333 9.551 21.333 21.333v0 42.667c0 11.782-9.551 21.333-21.333 21.333v0zM512 746.667c11.782 0 21.333 9.551 21.333 21.333v0 42.667c0 11.782-9.551 21.333-21.333 21.333s-21.333-9.551-21.333-21.333v0-42.667c0-11.782 9.551-21.333 21.333-21.333v0z" />
<glyph unicode="&#xe903;" glyph-name="line_close" d="M874.667 810.667c-93.181 92.008-221.287 148.838-362.667 148.838s-269.485-56.829-362.72-148.89l0.053 0.053c-93.029-92.716-150.59-220.969-150.59-362.667s57.561-269.95 150.576-362.652l0.015-0.015c93.181-92.008 221.287-148.838 362.667-148.838s269.485 56.829 362.72 148.89l-0.053-0.053c93.029 92.716 150.59 220.969 150.59 362.667s-57.561 269.95-150.576 362.652l-0.015 0.015zM814.933 145.067c-76.443-76.461-182.057-123.754-298.718-123.754-1.482 0-2.962 0.008-4.44 0.023l0.225-0.002c-1.253-0.013-2.733-0.021-4.215-0.021-116.66 0-222.275 47.293-298.717 123.753l-0.001 0.001c-76.925 77.802-124.445 184.818-124.445 302.933s47.52 225.131 124.485 302.973l-0.040-0.040c76.443 76.461 182.057 123.754 298.718 123.754 1.482 0 2.962-0.008 4.44-0.023l-0.225 0.002c1.253 0.013 2.733 0.021 4.215 0.021 116.66 0 222.275-47.293 298.717-123.753l0.001-0.001c76.925-77.802 124.445-184.818 124.445-302.933s-47.52-225.131-124.485-302.973l0.040 0.040zM733.867 669.867c-7.69 7.542-18.235 12.197-29.867 12.197s-22.177-4.655-29.874-12.203l-162.126-162.126-162.133 162.133c-7.042 5.327-15.947 8.533-25.6 8.533-23.564 0-42.667-19.103-42.667-42.667 0-9.653 3.206-18.558 8.611-25.707l-0.078 0.107 162.133-162.133-162.133-162.133c-7.542-7.69-12.197-18.235-12.197-29.867s4.655-22.177 12.203-29.874l-0.007 0.007c7.69-7.542 18.235-12.197 29.867-12.197s22.177 4.655 29.874 12.203l162.126 162.126 162.133-162.133c7.69-7.542 18.235-12.197 29.867-12.197s22.177 4.655 29.874 12.203l-0.007-0.007c7.542 7.69 12.197 18.235 12.197 29.867s-4.655 22.177-12.203 29.874l-162.126 162.126 162.133 162.133c7.542 7.69 12.197 18.235 12.197 29.867s-4.655 22.177-12.203 29.874l0.007-0.007z" />
<glyph unicode="&#xe904;" glyph-name="line_delete" d="M810.667 832h-597.333c-47.128 0-85.333-38.205-85.333-85.333v0-85.333c0-47.128 38.205-85.333 85.333-85.333v0-554.667c0-47.128 38.205-85.333 85.333-85.333v0h426.667c47.128 0 85.333 38.205 85.333 85.333v0 554.667c47.128 0 85.333 38.205 85.333 85.333v0 85.333c0 47.128-38.205 85.333-85.333 85.333v0zM725.333 21.333h-426.667v554.667h426.667zM810.667 661.333h-597.333v85.333h597.333zM384 874.667h256c1.361-0.171 2.937-0.269 4.535-0.269 21.208 0 38.4 17.192 38.4 38.4 0 1.598-0.098 3.174-0.287 4.721l0.019-0.186c0.171 1.361 0.269 2.937 0.269 4.535 0 21.208-17.192 38.4-38.4 38.4-1.598 0-3.174-0.098-4.721-0.287l0.186 0.019h-256c-1.361 0.171-2.937 0.269-4.535 0.269-21.208 0-38.4-17.192-38.4-38.4 0-1.598 0.098-3.174 0.287-4.721l-0.019 0.186c-0.171-1.361-0.269-2.937-0.269-4.535 0-21.208 17.192-38.4 38.4-38.4 1.598 0 3.174 0.098 4.721 0.287l-0.186-0.019zM426.667 106.667c1.361-0.171 2.937-0.269 4.535-0.269 21.208 0 38.4 17.192 38.4 38.4 0 1.598-0.098 3.174-0.287 4.721l0.019-0.186v298.667c0.171 1.361 0.269 2.937 0.269 4.535 0 21.208-17.192 38.4-38.4 38.4-1.598 0-3.174-0.098-4.721-0.287l0.186 0.019c-1.361 0.171-2.937 0.269-4.535 0.269-21.208 0-38.4-17.192-38.4-38.4 0-1.598 0.098-3.174 0.287-4.721l-0.019 0.186v-298.667c-0.171-1.361-0.269-2.937-0.269-4.535 0-21.208 17.192-38.4 38.4-38.4 1.598 0 3.174 0.098 4.721 0.287l-0.186-0.019zM597.333 106.667c1.361-0.171 2.937-0.269 4.535-0.269 21.208 0 38.4 17.192 38.4 38.4 0 1.598-0.098 3.174-0.287 4.721l0.019-0.186v298.667c0 23.564-19.103 42.667-42.667 42.667s-42.667-19.103-42.667-42.667v0-298.667c-0.171-1.361-0.269-2.937-0.269-4.535 0-21.208 17.192-38.4 38.4-38.4 1.598 0 3.174 0.098 4.721 0.287l-0.186-0.019z" />
<glyph unicode="&#xe905;" glyph-name="line_document" d="M853.333 21.333h-682.667v853.333h384v85.333h-384c-47.128 0-85.333-38.205-85.333-85.333v0-853.333c0-47.128 38.205-85.333 85.333-85.333v0h682.667c47.128 0 85.333 38.205 85.333 85.333v0 554.667h-85.333zM725.333 661.333h213.333l-298.667 298.667v-213.333c0-47.128 38.205-85.333 85.333-85.333v0zM298.667 618.667h128c1.361-0.171 2.937-0.269 4.535-0.269 21.208 0 38.4 17.192 38.4 38.4 0 1.598-0.098 3.174-0.287 4.721l0.019-0.186c0.171 1.361 0.269 2.937 0.269 4.535 0 21.208-17.192 38.4-38.4 38.4-1.598 0-3.174-0.098-4.721-0.287l0.186 0.019h-128c-1.361 0.171-2.937 0.269-4.535 0.269-21.208 0-38.4-17.192-38.4-38.4 0-1.598 0.098-3.174 0.287-4.721l-0.019 0.186c-0.171-1.361-0.269-2.937-0.269-4.535 0-21.208 17.192-38.4 38.4-38.4 1.598 0 3.174 0.098 4.721 0.287l-0.186-0.019zM725.333 277.333h-426.667c-23.564 0-42.667-19.103-42.667-42.667s19.103-42.667 42.667-42.667v0h426.667c23.564 0 42.667 19.103 42.667 42.667s-19.103 42.667-42.667 42.667v0zM725.333 490.667h-426.667c-23.564 0-42.667-19.103-42.667-42.667s19.103-42.667 42.667-42.667v0h426.667c23.564 0 42.667 19.103 42.667 42.667s-19.103 42.667-42.667 42.667v0z" />
<glyph unicode="&#xe906;" glyph-name="line_download" d="M981.333 362.667c-1.361 0.171-2.937 0.269-4.535 0.269-21.208 0-38.4-17.192-38.4-38.4 0-1.598 0.098-3.174 0.287-4.721l-0.019 0.186v-170.667h-853.333v170.667c0.171 1.361 0.269 2.937 0.269 4.535 0 21.208-17.192 38.4-38.4 38.4-1.598 0-3.174-0.098-4.721-0.287l0.186 0.019c-1.361 0.171-2.937 0.269-4.535 0.269-21.208 0-38.4-17.192-38.4-38.4 0-1.598 0.098-3.174 0.287-4.721l-0.019 0.186v-170.667c0-47.128 38.205-85.333 85.333-85.333v0h853.333c47.128 0 85.333 38.205 85.333 85.333v0 170.667c0.171 1.361 0.269 2.937 0.269 4.535 0 21.208-17.192 38.4-38.4 38.4-1.598 0-3.174-0.098-4.721-0.287l0.186 0.019zM482.133 247.467l12.8-8.533h34.133l12.8 8.533 213.333 209.067c5.83 9.062 9.295 20.126 9.295 32s-3.464 22.938-9.437 32.237l0.143-0.237c-9.062 5.83-20.126 9.295-32 9.295s-22.938-3.464-32.237-9.437l0.237 0.143-136.533-140.8v409.6c0 23.564-19.103 42.667-42.667 42.667s-42.667-19.103-42.667-42.667v0-409.6l-136.533 140.8c-9.062 5.83-20.126 9.295-32 9.295s-22.938-3.464-32.237-9.437l0.237 0.143c-5.83-9.062-9.295-20.126-9.295-32s3.464-22.938 9.437-32.237l-0.143 0.237z" />
<glyph unicode="&#xe907;" glyph-name="line_edit" d="M994.133 755.2l-174.933 174.933c-18.31 17.362-43.108 28.039-70.4 28.039s-52.090-10.677-70.446-28.082l0.046 0.043-59.733-59.733 59.733-59.733 59.733 59.733c2.894 2.332 6.615 3.744 10.667 3.744s7.773-1.412 10.699-3.77l-0.033 0.026 174.933-174.933c2.332-2.894 3.744-6.615 3.744-10.667s-1.412-7.773-3.77-10.699l0.026 0.033-59.733-59.733 59.733-59.733 59.733 59.733c17.362 18.31 28.039 43.108 28.039 70.4s-10.677 52.090-28.082 70.446l0.043-0.046zM362.667 102.4l-196.267 196.267 452.267 452.267-59.733 59.733-490.667-490.667-8.533-34.133-59.733-349.867 349.867 59.733 34.133 8.533 490.667 490.667-59.733 59.733zM106.667 42.667l29.867 166.4 136.533-136.533zM755.2 494.933l59.733 59.733-196.267 196.267-59.733-59.733z" />
<glyph unicode="&#xe908;" glyph-name="line_help" d="M512 960c-282.77 0-512-229.23-512-512v0-512h512c282.77 0 512 229.23 512 512s-229.23 512-512 512v0zM512 21.333h-426.667v426.667c0 235.641 191.025 426.667 426.667 426.667s426.667-191.025 426.667-426.667c0-235.641-191.025-426.667-426.667-426.667v0zM469.333 234.667c-23.564 0-42.667-19.103-42.667-42.667s19.103-42.667 42.667-42.667v0c23.564 0 42.667 19.103 42.667 42.667s-19.103 42.667-42.667 42.667v0zM541.867 704c-13.687 3.95-29.408 6.221-45.659 6.221-76.692 0-141.57-50.586-163.086-120.212l-0.322-1.209c-1.404-3.827-2.216-8.246-2.216-12.855 0-20.486 16.042-37.226 36.25-38.341l0.099-0.004h12.8c0.079-0.001 0.173-0.001 0.268-0.001 17.348 0 31.673 12.941 33.848 29.696l0.018 0.171c10.68 33.142 41.248 56.699 77.318 56.699 10.559 0 20.646-2.019 29.897-5.691l-0.548 0.192c31.74-8.584 55.454-35.166 59.69-67.86l0.043-0.407c0.177-2.163 0.279-4.683 0.279-7.226 0-14.415-3.249-28.071-9.055-40.275l0.243 0.568-17.067-25.6-25.6-17.067c-21.728-9.224-40.192-22.216-55.393-38.321l-0.074-0.079c-14.748-14.821-27.499-31.651-37.801-50.037l-0.599-1.163c-8.022-20.245-12.712-43.696-12.8-68.231v-25.636h85.333v25.6c0.932 12.54 3.981 24.143 8.794 34.777l-0.261-0.644 17.067 25.6 29.867 17.067c20.279 9.219 37.365 22.206 51.033 38.2l0.167 0.2c16.184 15.275 29.176 33.739 37.998 54.408l0.402 1.058c9.184 19.413 14.546 42.175 14.546 66.189 0 8.262-0.635 16.375-1.858 24.295l0.112-0.883c-10.878 67.522-59.13 121.48-122.495 140.481l-1.238 0.319z" />
<glyph unicode="&#xe909;" glyph-name="line_icd10code" d="M998.4 81.067l-170.667 170.667c-14.752 15.197-35.371 24.627-58.193 24.627-8.153 0-16.025-1.204-23.448-3.443l0.574 0.149-46.933 46.933h-162.133c-44.096-25.845-96.899-41.544-153.278-42.662l-0.322-0.005c-164.949 0-298.667 133.718-298.667 298.667s133.718 298.667 298.667 298.667v0c56.701-1.123 109.504-16.821 155.115-43.485l-1.515 0.818h132.267c-70.84 78.203-172.551 127.32-285.744 127.999l-0.122 0.001c-212.077 0-384-171.923-384-384s171.923-384 384-384v0c1.545-0.024 3.368-0.037 5.194-0.037 89.306 0 171.072 32.279 234.268 85.807l-0.529-0.437 64-64c-2.090-6.849-3.294-14.721-3.294-22.874 0-22.822 9.431-43.441 24.607-58.174l0.020-0.019 170.667-170.667c14.868-16.166 36.122-26.26 59.733-26.26s44.865 10.094 59.681 26.203l0.052 0.058c16.166 14.868 26.26 36.122 26.26 59.733s-10.094 44.865-26.203 59.681l-0.058 0.052zM832 405.333c82.475 0 149.333 66.859 149.333 149.333v0 42.667c0 82.475-66.859 149.333-149.333 149.333s-149.333-66.859-149.333-149.333v0-42.667c0-82.475 66.859-149.333 149.333-149.333v0zM768 614.4c0 35.346 28.654 64 64 64s64-28.654 64-64v0-76.8c0-35.346-28.654-64-64-64s-64 28.654-64 64v0zM640 405.333v320c0 11.782-9.551 21.333-21.333 21.333v0h-93.867c-8.533 0-17.067-4.267-17.067-12.8l-21.333-42.667c-5.215-3.020-8.666-8.574-8.666-14.933 0-9.499 7.7-17.199 17.199-17.199 3.139 0 6.082 0.841 8.616 2.31l-0.082-0.044h51.2v-256zM170.667 597.333v-42.667c0-82.475 66.859-149.333 149.333-149.333v0c82.475 0 149.333 66.859 149.333 149.333v0 42.667c0 82.475-66.859 149.333-149.333 149.333v0c-82.475 0-149.333-66.859-149.333-149.333v0zM384 614.4v-76.8c0-35.346-28.654-64-64-64s-64 28.654-64 64v0 76.8c0 35.346 28.654 64 64 64v0c35.346 0 64-28.654 64-64v0z" />
<glyph unicode="&#xe90a;" glyph-name="line_info" d="M512 960c-282.77 0-512-229.23-512-512s229.23-512 512-512c282.77 0 512 229.23 512 512v0c0 282.77-229.23 512-512 512v0zM512 21.333c-235.641 0-426.667 191.025-426.667 426.667s191.025 426.667 426.667 426.667c235.641 0 426.667-191.025 426.667-426.667v0c0-235.641-191.025-426.667-426.667-426.667v0zM512 661.333c-1.361 0.171-2.937 0.269-4.535 0.269-21.208 0-38.4-17.192-38.4-38.4 0-1.598 0.098-3.174 0.287-4.721l-0.019 0.186c0-23.564 19.103-42.667 42.667-42.667s42.667 19.103 42.667 42.667v0c0.171 1.361 0.269 2.937 0.269 4.535 0 21.208-17.192 38.4-38.4 38.4-1.598 0-3.174-0.098-4.721-0.287l0.186 0.019zM512 490.667c-1.361 0.171-2.937 0.269-4.535 0.269-21.208 0-38.4-17.192-38.4-38.4 0-1.598 0.098-3.174 0.287-4.721l-0.019 0.186v-170.667c0-23.564 19.103-42.667 42.667-42.667s42.667 19.103 42.667 42.667v0 170.667c0.171 1.361 0.269 2.937 0.269 4.535 0 21.208-17.192 38.4-38.4 38.4-1.598 0-3.174-0.098-4.721-0.287l0.186 0.019z" />
<glyph unicode="&#xe90b;" glyph-name="line_leftarrow" d="M938.667 960h-853.333c-47.128 0-85.333-38.205-85.333-85.333v0-853.333c0-47.128 38.205-85.333 85.333-85.333v0h853.333c47.128 0 85.333 38.205 85.333 85.333v0 853.333c0 47.128-38.205 85.333-85.333 85.333v0zM938.667 21.333h-853.333v853.333h853.333zM627.2 119.467v0l12.8-8.533h17.067c25.921 0 46.933 21.013 46.933 46.933v0c0.013 0.366 0.020 0.796 0.020 1.227 0 11.365-4.937 21.576-12.783 28.607l-0.036 0.032-264.533 260.267 264.533 264.533c7.883 7.063 12.82 17.274 12.82 28.639 0 0.432-0.007 0.862-0.021 1.29l0.002-0.062c0 25.921-21.013 46.933-46.933 46.933v0h-17.067l-12.8-8.533-315.733-298.667c-7.542-7.69-12.197-18.235-12.197-29.867s4.655-22.177 12.203-29.874l-0.007 0.007z" />
<glyph unicode="&#xe90c;" glyph-name="line_link" d="M968.533 844.8l-59.733 59.733c-29.293 29.061-69.637 47.020-114.176 47.020-1.861 0-3.714-0.031-5.559-0.094l0.268 0.007c-1.577 0.055-3.43 0.086-5.291 0.086-44.539 0-84.883-17.959-114.186-47.030l0.011 0.010-277.333-277.333c-30.167-30.759-48.786-72.938-48.786-119.467s18.619-88.708 48.813-119.494l59.706-59.706 59.733 59.733-59.733 59.733c-12.754 16.377-20.676 37.070-21.33 59.586l-0.003 0.148c0.657 22.663 8.58 43.357 21.506 59.963l-0.172-0.23 277.333 277.333c16.097 13.355 36.969 21.459 59.733 21.459s43.637-8.104 59.888-21.584l-0.155 0.125 59.733-59.733c12.754-16.377 20.676-37.070 21.33-59.586l0.003-0.148c-0.657-22.663-8.58-43.357-21.506-59.963l0.172 0.23-166.4-166.4c13.042-28.86 20.847-62.524 21.331-97.956l0.002-0.177 204.8 204.8c30.167 30.759 48.786 72.938 48.786 119.467s-18.619 88.708-48.813 119.494l0.027-0.027zM571.733 567.467v0l-59.733-59.733 59.733-59.733c13.355-16.097 21.459-36.969 21.459-59.733s-8.104-43.637-21.584-59.888l0.125 0.155-277.333-277.333c-16.377-12.754-37.070-20.676-59.586-21.33l-0.148-0.003c-22.663 0.657-43.357 8.58-59.963 21.506l0.23-0.172-59.733 59.733c-13.355 16.097-21.459 36.969-21.459 59.733s8.104 43.637 21.584 59.888l-0.125-0.155 166.4 166.4c-13.042 28.86-20.847 62.524-21.331 97.956l-0.002 0.177-204.8-204.8c-30.167-30.759-48.786-72.938-48.786-119.467s18.619-88.708 48.813-119.494l59.706-59.706c29.293-29.061 69.637-47.020 114.176-47.020 1.861 0 3.714 0.031 5.559 0.094l-0.268-0.007c1.577-0.055 3.43-0.086 5.291-0.086 44.539 0 84.883 17.959 114.186 47.030l-0.011-0.010 277.333 277.333c30.167 30.759 48.786 72.938 48.786 119.467s-18.619 88.708-48.813 119.494l0.027-0.027z" />
<glyph unicode="&#xe90d;" glyph-name="line_message" d="M1024 725.333v-597.333c0-47.128-38.205-85.333-85.333-85.333v0h-853.333c-47.128 0-85.333 38.205-85.333 85.333v0 597.333c0.883 15.541 3.938 30.088 8.871 43.736l-0.338-1.070 76.8-64v-576h853.333v576l76.8 64c4.596-12.578 7.651-27.125 8.515-42.259l0.019-0.408zM1015.467 768l-76.8-64v21.333h-853.333v-21.333l-76.8 64c16.038 25.77 44.208 42.668 76.325 42.668 0.167 0 0.334 0 0.5-0.001h853.307c0.141 0.001 0.308 0.001 0.475 0.001 32.117 0 60.287-16.898 76.105-42.289l0.22-0.379zM512 298.667l-25.6 8.533-426.667 362.667c-10.41 7.867-17.067 20.223-17.067 34.133 0 9.653 3.206 18.558 8.611 25.707l-0.078-0.107c7.858 8.899 19.293 14.482 32.032 14.482 10.6 0 20.297-3.865 27.758-10.263l-0.057 0.048 401.067-337.067 401.067 337.067c7.404 6.35 17.101 10.215 27.701 10.215 12.739 0 24.175-5.583 31.992-14.436l0.040-0.046c5.327-7.042 8.533-15.947 8.533-25.6 0-13.911-6.657-26.267-16.959-34.056l-0.107-0.078-426.667-362.667z" />
<glyph unicode="&#xe90e;" glyph-name="line_notification" d="M921.6 179.2c-57.71 56.388-93.583 134.911-93.867 221.813v136.586c0.011 0.996 0.018 2.173 0.018 3.351 0 132.146-82.295 245.071-198.43 290.321l-2.121 0.728v12.8c0 63.623-51.577 115.2-115.2 115.2s-115.2-51.577-115.2-115.2v0-12.8c-118.257-45.978-200.551-158.903-200.551-291.049 0-1.178 0.007-2.355 0.020-3.53l-0.002 0.179v-136.533c-0.283-86.956-36.156-165.478-93.807-221.809l-0.060-0.058c-8.058-9.008-12.983-20.965-12.983-34.072 0-1.523 0.067-3.031 0.197-4.521l-0.014 0.193c0-28.277 22.923-51.2 51.2-51.2v0h742.4c28.277 0 51.2 22.923 51.2 51.2v0c0.117 1.296 0.183 2.804 0.183 4.328 0 13.108-4.925 25.065-13.027 34.122l0.043-0.049zM512 874.667c13.529-0.734 24.902-9.242 29.784-21.106l0.083-0.227h-59.733c4.964 12.091 16.338 20.599 29.78 21.33l0.087 0.004zM209.067 174.933c45.339 62.254 72.536 140.252 72.536 224.603 0 0.538-0.001 1.076-0.003 1.614v-0.083 136.533c0 127.246 103.154 230.4 230.4 230.4s230.4-103.154 230.4-230.4v0-136.533c-0.002-0.454-0.003-0.992-0.003-1.531 0-84.35 27.197-162.349 73.3-225.704l-0.764 1.101zM584.533 42.667c-19.822-13.222-44.191-21.099-70.4-21.099s-50.578 7.877-70.869 21.393l0.469-0.294c-6.642 4.472-14.822 7.138-23.625 7.138-15.136 0-28.432-7.882-36.006-19.765l-0.103-0.172c-4.441-7.039-7.076-15.603-7.076-24.782 0-13.863 6.010-26.321 15.567-34.913l0.043-0.038c35.52-20.812 78.081-33.391 123.52-34.131l0.213-0.003c44.211 0.911 85.302 13.481 120.559 34.745l-1.093-0.611c11.531 6.77 19.15 19.108 19.15 33.226 0 10.286-4.045 19.628-10.63 26.522l0.014-0.015c-7.677 12.056-20.972 19.938-36.109 19.938-8.803 0-16.983-2.666-23.777-7.234l0.153 0.097z" />
<glyph unicode="&#xe90f;" glyph-name="line_remove" d="M1024 874.667v-853.333c0-47.128-38.205-85.333-85.333-85.333v0h-853.333c-47.128 0-85.333 38.205-85.333 85.333v0 853.333c0 47.128 38.205 85.333 85.333 85.333v0h853.333c47.128 0 85.333-38.205 85.333-85.333v0zM938.667 21.333v853.333h-853.333v-853.333zM298.667 490.667h426.667v-85.333h-426.667v85.333z" />
<glyph unicode="&#xe910;" glyph-name="line_rightarrow" d="M938.667 960h-853.333c-47.128 0-85.333-38.205-85.333-85.333v0-853.333c0-47.128 38.205-85.333 85.333-85.333v0h853.333c47.128 0 85.333 38.205 85.333 85.333v0 853.333c0 47.128-38.205 85.333-85.333 85.333v0zM938.667 21.333h-853.333v853.333h853.333zM320 153.6c0-25.921 21.013-46.933 46.933-46.933h17.067l12.8 8.533 315.733 298.667c7.542 7.69 12.197 18.235 12.197 29.867s-4.655 22.177-12.203 29.874l0.007-0.007-315.733 298.667-12.8 12.8h-17.067c-0.058 0-0.126 0-0.194 0-24.418 0-44.482-18.648-46.725-42.48l-0.014-0.187c-0.013-0.366-0.020-0.796-0.020-1.227 0-11.365 4.937-21.576 12.783-28.607l0.036-0.032 264.533-264.533-264.533-264.533c-7.883-7.063-12.82-17.274-12.82-28.639 0-0.432 0.007-0.862 0.021-1.29l-0.002 0.062z" />
<glyph unicode="&#xe911;" glyph-name="line_search" d="M998.4 81.067l-170.667 170.667c-14.752 15.197-35.371 24.627-58.193 24.627-8.153 0-16.025-1.204-23.448-3.443l0.574 0.149-64 64c53.091 62.667 85.371 144.433 85.371 233.739 0 1.826-0.013 3.649-0.040 5.469l0.003-0.275c0 212.077-171.923 384-384 384s-384-171.923-384-384c0-212.077 171.923-384 384-384v0c1.545-0.024 3.368-0.037 5.194-0.037 89.306 0 171.072 32.279 234.268 85.807l-0.529-0.437 64-64c-2.090-6.849-3.294-14.721-3.294-22.874 0-22.822 9.431-43.441 24.607-58.174l0.020-0.019 170.667-170.667c14.868-16.166 36.122-26.26 59.733-26.26s44.865 10.094 59.681 26.203l0.052 0.058c16.166 14.868 26.26 36.122 26.26 59.733s-10.094 44.865-26.203 59.681l-0.058 0.052zM384 277.333c-164.949 0-298.667 133.718-298.667 298.667s133.718 298.667 298.667 298.667c164.949 0 298.667-133.718 298.667-298.667v0c0-164.949-133.718-298.667-298.667-298.667v0z" />
<glyph unicode="&#xe912;" glyph-name="line_success" d="M874.667 810.667c-93.181 92.008-221.287 148.838-362.667 148.838s-269.485-56.829-362.72-148.89l0.053 0.053c-93.029-92.716-150.59-220.969-150.59-362.667s57.561-269.95 150.576-362.652l0.015-0.015c93.181-92.008 221.287-148.838 362.667-148.838s269.485 56.829 362.72 148.89l-0.053-0.053c93.029 92.716 150.59 220.969 150.59 362.667s-57.561 269.95-150.576 362.652l-0.015 0.015zM806.4 153.6c-75.989-73.916-179.872-119.497-294.4-119.497s-218.411 45.58-294.497 119.591l0.097-0.094c-74.915 75.539-121.209 179.563-121.209 294.4s46.294 218.861 121.237 294.428l-0.028-0.028c75.989 73.916 179.872 119.497 294.4 119.497s218.411-45.58 294.497-119.591l-0.097 0.094c74.915-75.539 121.209-179.563 121.209-294.4s-46.294-218.861-121.237-294.428l0.028 0.028zM733.867 601.6c-6.307 7.914-15.946 12.942-26.758 12.942-1.094 0-2.177-0.052-3.245-0.152l0.136 0.010c-11.631-0.616-22.044-5.377-29.887-12.82l0.021 0.020-213.333-213.333-93.867 93.867c-7.823 7.423-18.236 12.184-29.75 12.795l-0.117 0.005c-0.366 0.013-0.796 0.020-1.227 0.020-11.365 0-21.576-4.937-28.607-12.783l-0.032-0.036h-4.267c-6.010-8.285-9.614-18.655-9.614-29.867s3.604-21.582 9.716-30.015l-0.103 0.149 128-123.733c7.063-7.883 17.274-12.82 28.639-12.82 0.432 0 0.862 0.007 1.29 0.021l-0.062-0.002c11.631 0.616 22.044 5.377 29.887 12.82l-0.021-0.020 247.467 243.2c6.010 8.285 9.614 18.655 9.614 29.867s-3.604 21.582-9.716 30.015l0.103-0.149z" />
<glyph unicode="&#xe913;" glyph-name="line_unlink" d="M968.533 844.8l-59.733 59.733c-29.293 29.061-69.637 47.020-114.176 47.020-1.861 0-3.714-0.031-5.559-0.094l0.268 0.007c-1.577 0.055-3.43 0.086-5.291 0.086-44.539 0-84.883-17.959-114.186-47.030l0.011 0.010-247.467-247.467 59.733-59.733 247.467 247.467c16.097 13.355 36.969 21.459 59.733 21.459s43.637-8.104 59.888-21.584l-0.155 0.125 59.733-59.733c12.754-16.377 20.676-37.070 21.33-59.586l0.003-0.148c-0.657-22.663-8.58-43.357-21.506-59.963l0.172 0.23-247.467-247.467 59.733-59.733 247.467 247.467c30.167 30.759 48.786 72.938 48.786 119.467s-18.619 88.708-48.813 119.494l0.027-0.027zM294.4 51.2c-16.377-12.754-37.070-20.676-59.586-21.33l-0.148-0.003c-22.663 0.657-43.357 8.58-59.963 21.506l0.23-0.172-59.733 59.733c-13.355 16.097-21.459 36.969-21.459 59.733s8.104 43.637 21.584 59.888l-0.125-0.155 247.467 247.467-59.733 59.733-247.467-247.467c-30.167-30.759-48.786-72.938-48.786-119.467s18.619-88.708 48.813-119.494l59.706-59.706c29.293-29.061 69.637-47.020 114.176-47.020 1.861 0 3.714 0.031 5.559 0.094l-0.268-0.007c1.577-0.055 3.43-0.086 5.291-0.086 44.539 0 84.883 17.959 114.186 47.030l-0.011-0.010 247.467 247.467-59.733 59.733zM106.667 597.333h128c11.782 0 21.333 9.551 21.333 21.333s-9.551 21.333-21.333 21.333v0h-128c-11.782 0-21.333-9.551-21.333-21.333s9.551-21.333 21.333-21.333v0zM251.733 678.4c3.521-2.664 7.973-4.267 12.8-4.267 11.782 0 21.333 9.551 21.333 21.333 0 4.827-1.603 9.279-4.306 12.854l0.039-0.054-89.6 89.6c-3.521 2.664-7.973 4.267-12.8 4.267-11.782 0-21.333-9.551-21.333-21.333 0-4.827 1.603-9.279 4.306-12.854l-0.039 0.054zM341.333 704c11.782 0 21.333 9.551 21.333 21.333v0 128c0 11.782-9.551 21.333-21.333 21.333s-21.333-9.551-21.333-21.333v0-128c0-11.782 9.551-21.333 21.333-21.333v0zM917.333 298.667h-128c-11.782 0-21.333-9.551-21.333-21.333s9.551-21.333 21.333-21.333v0h128c11.782 0 21.333 9.551 21.333 21.333s-9.551 21.333-21.333 21.333v0zM772.267 217.6c-3.521 2.664-7.973 4.267-12.8 4.267-11.782 0-21.333-9.551-21.333-21.333 0-4.827 1.603-9.279 4.306-12.854l-0.039 0.054 89.6-89.6c3.933-5.205 10.111-8.533 17.067-8.533 11.782 0 21.333 9.551 21.333 21.333 0 6.955-3.329 13.133-8.48 17.028l-0.054 0.039zM682.667 192c-11.782 0-21.333-9.551-21.333-21.333v0-128c0-11.782 9.551-21.333 21.333-21.333s21.333 9.551 21.333 21.333v0 128c0 11.782-9.551 21.333-21.333 21.333v0z" />
<glyph unicode="&#xe914;" glyph-name="line_upload" d="M640 917.333c-0.186 0-0.407 0.001-0.628 0.001-166.195 0-307.731-105.58-361.193-253.326l-0.846-2.674h-21.333c-1.269 0.023-2.767 0.036-4.267 0.036-141.405 0-256.036-114.631-256.036-256.036 0-139.904 112.212-253.6 251.544-255.997l0.225-0.003c-21.173 22.165-34.204 52.265-34.204 85.408 0 1.474 0.026 2.942 0.077 4.404l-0.006-0.212c-73.747 21.020-127.010 87.357-127.999 166.287l-0.001 0.113c0 94.257 76.41 170.667 170.667 170.667v0h81.067l21.333 59.733c42.217 117.036 152.321 199.192 281.614 199.192 164.949 0 298.667-133.718 298.667-298.667 0-1.029-0.005-2.056-0.016-3.083l0.001 0.157c-0.503-104.832-54.177-197.020-135.419-251.036l-1.115-0.697c6.183-14.497 9.778-31.362 9.778-49.067s-3.595-34.57-10.094-49.906l0.316 0.839c130.644 65.195 219.354 196.882 221.862 349.534l0.004 0.333c0 212.077-171.923 384-384 384v0zM541.867 520.533l-12.8 8.533h-34.133l-12.8-8.533-170.667-170.667c-5.327-7.042-8.533-15.947-8.533-25.6 0-23.564 19.103-42.667 42.667-42.667 9.653 0 18.558 3.206 25.707 8.611l-0.107-0.078 98.133 98.133v-366.933c0-23.564 19.103-42.667 42.667-42.667s42.667 19.103 42.667 42.667v0 366.933l98.133-98.133c7.69-7.542 18.235-12.197 29.867-12.197s22.177 4.655 29.874 12.203l-0.007-0.007c7.542 7.69 12.197 18.235 12.197 29.867s-4.655 22.177-12.203 29.874l0.007-0.007z" />
<glyph unicode="&#xe915;" glyph-name="line_user" d="M512 960c-282.77 0-512-229.23-512-512s229.23-512 512-512c282.77 0 512 229.23 512 512v0c0 282.77-229.23 512-512 512v0zM268.8 98.133c-111.478 78.068-183.467 205.911-183.467 350.568 0 235.641 191.025 426.667 426.667 426.667s426.667-191.025 426.667-426.667c0-144.657-71.989-272.5-182.096-349.658l-1.371-0.911c-64 25.6-119.467 42.667-136.533 89.6-4.533 16.415-7.137 35.264-7.137 54.72 0 12.319 1.044 24.394 3.049 36.141l-0.178-1.262c21.333 8.533 51.2 85.333 55.467 128s34.133 12.8 38.4 59.733c1.028 3.489 1.619 7.497 1.619 11.643 0 14.61-7.344 27.506-18.541 35.196l-0.145 0.094c21.333 59.733 55.467 230.4-85.333 238.933-17.067 29.867-55.467 38.4-102.4 38.4-187.733-8.533-213.333-119.467-170.667-277.333-11.090-6.865-18.367-18.962-18.367-32.76 0-3.523 0.474-6.935 1.363-10.176l-0.063 0.27c4.267-51.2 25.6-59.733 34.133-64s38.4-119.467 59.733-128c1.827-10.486 2.871-22.561 2.871-34.88 0-19.457-2.605-38.305-7.485-56.216l0.347 1.496c-17.067-46.933-72.533-64-136.533-89.6z" />
<glyph unicode="&#xe916;" glyph-name="line_view" d="M512 763.733c-4.184 0.114-9.108 0.179-14.048 0.179-218.81 0-407.798-127.682-496.522-312.605l-1.43-3.308c90.153-188.23 279.142-315.913 497.952-315.913 4.94 0 9.864 0.065 14.772 0.194l-0.724-0.015c4.184-0.114 9.108-0.179 14.048-0.179 218.81 0 407.798 127.682 496.522 312.605l1.43 3.308c-90.153 188.23-279.142 315.913-497.952 315.913-4.94 0-9.864-0.065-14.772-0.194l0.724 0.015zM512 221.867c-3.682-0.104-8.015-0.163-12.361-0.163-169.385 0-317.812 89.731-400.339 224.252l-1.166 2.044c83.694 136.565 232.121 226.296 401.506 226.296 4.347 0 8.679-0.059 12.998-0.177l-0.636 0.014c3.682 0.104 8.015 0.163 12.361 0.163 169.385 0 317.812-89.731 400.339-224.252l1.166-2.044c-83.694-136.565-232.121-226.296-401.506-226.296-4.347 0-8.679 0.059-12.998 0.177l0.636-0.014zM635.733 563.2c-29.876 34.077-73.495 55.475-122.111 55.475-0.57 0-1.14-0.003-1.709-0.009l0.087 0.001c-94.257 0-170.667-76.41-170.667-170.667s76.41-170.667 170.667-170.667c94.257 0 170.667 76.41 170.667 170.667v0c0.005 0.47 0.008 1.024 0.008 1.58 0 36.71-12.878 70.413-34.364 96.836l0.222-0.282c0 8.533-8.533 12.8-12.8 17.067zM512 349.867c-53.27 2.245-95.889 44.863-98.126 97.925l-0.007 0.208c2.245 53.27 44.863 95.889 97.925 98.126l0.208 0.007h8.533c-5.081-9.94-8.195-21.635-8.531-34.024l-0.002-0.11c0-0.037 0-0.081 0-0.126 0-40.059 32.474-72.533 72.533-72.533 1.501 0 2.991 0.046 4.47 0.135l-0.203-0.010h17.067c-2.344-49.972-43.429-89.6-93.77-89.6-0.034 0-0.068 0-0.102 0h0.005z" />
<glyph unicode="&#xe917;" glyph-name="line_warning" d="M512 277.333c-23.564 0-42.667-19.103-42.667-42.667s19.103-42.667 42.667-42.667c23.564 0 42.667 19.103 42.667 42.667v0c0.171 1.361 0.269 2.937 0.269 4.535 0 21.208-17.192 38.4-38.4 38.4-1.598 0-3.174-0.098-4.721-0.287l0.186 0.019zM512 597.333c-1.361 0.171-2.937 0.269-4.535 0.269-21.208 0-38.4-17.192-38.4-38.4 0-1.598 0.098-3.174 0.287-4.721l-0.019 0.186v-170.667c0-23.564 19.103-42.667 42.667-42.667s42.667 19.103 42.667 42.667v0 170.667c0.171 1.361 0.269 2.937 0.269 4.535 0 21.208-17.192 38.4-38.4 38.4-1.598 0-3.174-0.098-4.721-0.287l0.186 0.019zM1011.2 174.933l-413.867 695.467c-18.61 27.765-49.866 45.796-85.333 45.796s-66.723-18.032-85.1-45.427l-0.233-0.369-413.867-695.467c-8.644-14.7-13.75-32.381-13.75-51.254 0-55.388 43.975-100.504 98.915-102.342l0.168-0.004h827.733c55.109 1.842 99.083 46.959 99.083 102.346 0 18.873-5.106 36.554-14.011 51.736l0.261-0.482zM934.4 115.2c-4.267-8.533-8.533-8.533-8.533-8.533h-827.733l-8.533 8.533c-4.267 0-8.533 8.533 0 17.067l413.867 691.2c0 4.267 0 8.533 8.533 8.533s8.533-4.267 8.533-8.533l413.867-691.2c8.533-8.533 4.267-17.067 0-17.067z" />
<glyph unicode="&#xe918;" glyph-name="glyph_add" d="M1024 896v-896c0.257-2.042 0.403-4.406 0.403-6.803 0-31.812-25.788-57.6-57.6-57.6-2.398 0-4.761 0.146-7.082 0.431l0.278-0.028h-896c-2.042-0.257-4.406-0.403-6.803-0.403-31.812 0-57.6 25.788-57.6 57.6 0 2.398 0.146 4.761 0.431 7.082l-0.028-0.278v896c-0.257 2.042-0.403 4.406-0.403 6.803 0 31.812 25.788 57.6 57.6 57.6 2.398 0 4.761-0.146 7.082-0.431l-0.278 0.028h896c2.042 0.257 4.406 0.403 6.803 0.403 31.812 0 57.6-25.788 57.6-57.6 0-2.398-0.146-4.761-0.431-7.082l0.028 0.278zM768 384v128h-192v192h-128v-192h-192v-128h192v-192h128v192z" />
<glyph unicode="&#xe919;" glyph-name="glyph_calendar" d="M339.2 960h-83.2v-192h83.2zM768 960h-83.2v-192h83.2zM960 832h-108.8v-128h-256v128h-166.4v-128h-256v128h-108.8c-2.042 0.257-4.406 0.403-6.803 0.403-31.812 0-57.6-25.788-57.6-57.6 0-2.398 0.146-4.761 0.431-7.082l-0.028 0.278v-768c-0.257-2.042-0.403-4.406-0.403-6.803 0-31.812 25.788-57.6 57.6-57.6 2.398 0 4.761 0.146 7.082 0.431l-0.278-0.028h896c2.042-0.257 4.406-0.403 6.803-0.403 31.812 0 57.6 25.788 57.6 57.6 0 2.398-0.146 4.761-0.431 7.082l0.028-0.278v768c0.257 2.042 0.403 4.406 0.403 6.803 0 31.812-25.788 57.6-57.6 57.6-2.398 0-4.761-0.146-7.082-0.431l0.278 0.028zM339.2 83.2h-166.4v172.8h166.4zM339.2 339.2h-166.4v172.8h166.4zM595.2 83.2h-166.4v172.8h166.4zM595.2 339.2h-166.4v172.8h166.4zM851.2 83.2h-166.4v172.8h166.4zM851.2 339.2h-166.4v172.8h166.4z" />
<glyph unicode="&#xe91a;" glyph-name="glyph_clock" d="M339.2 960h-83.2v-192h83.2zM768 960h-83.2v-192h83.2zM960 832h-108.8v-128h-256v128h-166.4v-128h-256v128h-108.8c-2.042 0.257-4.406 0.403-6.803 0.403-31.812 0-57.6-25.788-57.6-57.6 0-2.398 0.146-4.761 0.431-7.082l-0.028 0.278v-768c-0.257-2.042-0.403-4.406-0.403-6.803 0-31.812 25.788-57.6 57.6-57.6 2.398 0 4.761 0.146 7.082 0.431l-0.278-0.028h896c2.042-0.257 4.406-0.403 6.803-0.403 31.812 0 57.6 25.788 57.6 57.6 0 2.398-0.146 4.761-0.431 7.082l0.028-0.278v768c0.257 2.042 0.403 4.406 0.403 6.803 0 31.812-25.788 57.6-57.6 57.6-2.398 0-4.761-0.146-7.082-0.431l0.278 0.028zM339.2 83.2h-166.4v172.8h166.4zM339.2 339.2h-166.4v172.8h166.4zM595.2 83.2h-166.4v172.8h166.4zM595.2 339.2h-166.4v172.8h166.4zM851.2 83.2h-166.4v172.8h166.4zM851.2 339.2h-166.4v172.8h166.4z" />
<glyph unicode="&#xe91b;" glyph-name="glyph_close" d="M876.8 812.8c-93.633 92.764-222.523 150.080-364.8 150.080s-271.167-57.317-364.84-150.119l0.040 0.039c-92.764-93.633-150.080-222.523-150.080-364.8s57.317-271.167 150.119-364.84l-0.039 0.040c93.633-92.764 222.523-150.080 364.8-150.080s271.167 57.317 364.84 150.119l-0.040-0.039c92.764 93.633 150.080 222.523 150.080 364.8s-57.317 271.167-150.119 364.84l0.039-0.040zM736 320c8.745-13.593 13.942-30.19 13.942-48s-5.196-34.407-14.156-48.356l0.214 0.356c-11.735-11.134-27.354-18.276-44.625-19.193l-0.175-0.007c-0.842-0.036-1.829-0.057-2.821-0.057-18.753 0-35.793 7.332-48.411 19.287l0.032-0.030-128 134.4-128-134.4c-12.585-11.924-29.626-19.257-48.379-19.257-0.992 0-1.98 0.021-2.962 0.061l0.141-0.005c-17.446 0.924-33.066 8.066-44.831 19.229l0.031-0.029c-8.745 13.593-13.942 30.19-13.942 48s5.196 34.407 14.156 48.356l-0.214-0.356 134.4 128-134.4 128c-8.745 13.593-13.942 30.19-13.942 48s5.196 34.407 14.156 48.356l-0.214-0.356c13.593 8.745 30.19 13.942 48 13.942s34.407-5.196 48.356-14.156l-0.356 0.214 128-134.4 128 134.4c13.593 8.745 30.19 13.942 48 13.942s34.407-5.196 48.356-14.156l-0.356 0.214c8.745-13.593 13.942-30.19 13.942-48s-5.196-34.407-14.156-48.356l0.214 0.356-134.4-128z" />
<glyph unicode="&#xe91c;" glyph-name="glyph_delete" d="M352 896h320c17.673 0 32 14.327 32 32v0c0 17.673-14.327 32-32 32v0h-320c-17.673 0-32-14.327-32-32v0c0-17.673 14.327-32 32-32v0zM838.4 832h-652.8c-31.812 0-57.6-25.788-57.6-57.6v0-140.8c0-31.812 25.788-57.6 57.6-57.6h6.4v-576c-0.257-2.042-0.403-4.406-0.403-6.803 0-31.812 25.788-57.6 57.6-57.6 2.398 0 4.761 0.146 7.082 0.431l-0.278-0.028h512c2.042-0.257 4.406-0.403 6.803-0.403 31.812 0 57.6 25.788 57.6 57.6 0 2.398-0.146 4.761-0.431 7.082l0.028-0.278v576h6.4c31.812 0 57.6 25.788 57.6 57.6v0 140.8c0 31.812-25.788 57.6-57.6 57.6v0zM448 160c0-17.673-14.327-32-32-32s-32 14.327-32 32v0 320c0 17.673 14.327 32 32 32s32-14.327 32-32v0zM640 160c0-17.673-14.327-32-32-32s-32 14.327-32 32v0 320c0 17.673 14.327 32 32 32s32-14.327 32-32v0z" />
<glyph unicode="&#xe91d;" glyph-name="glyph_document" d="M563.2 748.8v211.2h-384c-45.95 0-83.2-37.25-83.2-83.2v0-857.6c0-45.95 37.25-83.2 83.2-83.2v0h665.6c45.95 0 83.2 37.25 83.2 83.2v0 576h-211.2c-84.831 0-153.6 68.769-153.6 153.6v0zM288 640h128c17.673 0 32-14.327 32-32v0c0-17.673-14.327-32-32-32v0h-128c-17.673 0-32 14.327-32 32v0c0 17.673 14.327 32 32 32v0zM736 192h-448c-17.673 0-32 14.327-32 32s14.327 32 32 32v0h448c17.673 0 32-14.327 32-32s-14.327-32-32-32v0zM768 416c0-17.673-14.327-32-32-32v0h-448c-17.673 0-32 14.327-32 32s14.327 32 32 32v0h448c17.673 0 32-14.327 32-32v0zM716.8 659.2h211.2l-300.8 300.8v-211.2c0-49.485 40.115-89.6 89.6-89.6v0z" />
<glyph unicode="&#xe91e;" glyph-name="glyph_edit" d="M601.6 819.2v0l-518.4-518.4 281.6-281.6 518.4 518.4zM0-64l300.8 51.2-249.6 249.6zM1004.8 748.8l-192 192c-11.535 11.313-27.352 18.295-44.8 18.295s-33.265-6.982-44.81-18.305l0.010 0.010-76.8-70.4 288-288 70.4 76.8c11.313 11.535 18.295 27.352 18.295 44.8s-6.982 33.265-18.305 44.81l0.010-0.010z" />
<glyph unicode="&#xe91f;" glyph-name="glyph_help" d="M512 960c-282.77 0-512-229.23-512-512v0-512h512c282.77 0 512 229.23 512 512s-229.23 512-512 512v0zM448 96c-17.673 0-32 14.327-32 32s14.327 32 32 32c17.673 0 32-14.327 32-32v0c0-17.673-14.327-32-32-32v0zM665.6 512c-11.728-22.459-26.716-41.533-44.597-57.423l-0.203-0.177-64-44.8-38.4-25.6c-11.864-12.134-20.746-27.233-25.429-44.080l-0.171-0.72c-7.621-14.91-12.293-32.453-12.796-51.036l-0.004-0.164v-32h-64v32c1.235 27.828 5.827 54.093 13.39 79.066l-0.59-2.266c11.796 24.706 26.804 45.853 44.816 64.016l-0.016-0.016c16.876 18.114 38.577 31.521 63.058 38.182l0.942 0.218 38.4 32 25.6 38.4c6.828 14.985 11.402 32.39 12.769 50.689l0.031 0.511c0 70.692-57.308 128-128 128v0c-0.768 0.017-1.673 0.026-2.581 0.026-61.64 0-113.103-43.57-125.273-101.593l-0.146-0.833c-7.321-15.368-22.728-25.8-40.571-25.8-1.489 0-2.961 0.073-4.413 0.215l0.184-0.015c-12.8 6.4-25.6 25.6-19.2 38.4 10.087 97.983 92.194 173.758 192 173.758 106.568 0 192.958-86.39 192.958-192.958 0-6.762-0.348-13.442-1.027-20.025l0.069 0.825c-1.235-27.828-5.827-54.093-13.39-79.066l0.59 2.266z" />
<glyph unicode="&#xe920;" glyph-name="glyph_info" d="M512 960c-282.77 0-512-229.23-512-512s229.23-512 512-512c282.77 0 512 229.23 512 512v0c0 282.77-229.23 512-512 512v0zM576 256c0.257-2.042 0.403-4.406 0.403-6.803 0-31.812-25.788-57.6-57.6-57.6-2.398 0-4.761 0.146-7.082 0.431l0.278-0.028c-2.042-0.257-4.406-0.403-6.803-0.403-31.812 0-57.6 25.788-57.6 57.6 0 2.398 0.146 4.761 0.431 7.082l-0.028-0.278v128c-0.257 2.042-0.403 4.406-0.403 6.803 0 31.812 25.788 57.6 57.6 57.6 2.398 0 4.761-0.146 7.082-0.431l-0.278 0.028c2.042 0.257 4.406 0.403 6.803 0.403 31.812 0 57.6-25.788 57.6-57.6 0-2.398-0.146-4.761-0.431-7.082l0.028 0.278zM512 576c-2.042-0.257-4.406-0.403-6.803-0.403-31.812 0-57.6 25.788-57.6 57.6 0 2.398 0.146 4.761 0.431 7.082l-0.028-0.278c-0.257 2.042-0.403 4.406-0.403 6.803 0 31.812 25.788 57.6 57.6 57.6 2.398 0 4.761-0.146 7.082-0.431l-0.278 0.028c2.042 0.257 4.406 0.403 6.803 0.403 31.812 0 57.6-25.788 57.6-57.6 0-2.398-0.146-4.761-0.431-7.082l0.028 0.278c0.257-2.042 0.403-4.406 0.403-6.803 0-31.812-25.788-57.6-57.6-57.6-2.398 0-4.761 0.146-7.082 0.431l0.278-0.028z" />
<glyph unicode="&#xe921;" glyph-name="glyph_leftarrow" d="M128-64h768c70.692 0 128 57.308 128 128v0 768c0 70.692-57.308 128-128 128v0h-768c-70.692 0-128-57.308-128-128v0-768c0-70.692 57.308-128 128-128v0zM332.8 473.6l294.4 281.6c0 6.4 6.4 6.4 12.8 6.4h19.2c24.742 0 44.8-20.058 44.8-44.8v0c-0.474-12.339-5.244-23.481-12.846-32.053l0.046 0.053-51.2-44.8-192-192 243.2-243.2c7.556-8.519 12.326-19.661 12.797-31.904l0.003-0.096c0-24.742-20.058-44.8-44.8-44.8v0h-32l-294.4 294.4c-7.807 5.9-12.8 15.167-12.8 25.6s4.993 19.7 12.72 25.542l0.080 0.058z" />
<glyph unicode="&#xe922;" glyph-name="glyph_message" d="M960 832l-448-384-448 384h896zM1024 716.8v-588.8c-3.065-34.042-29.958-60.935-63.728-63.98l-0.272-0.020h-896c-34.042 3.065-60.935 29.958-63.98 63.728l-0.020 0.272v588.8l467.2-422.4c12.427-9.015 27.982-14.421 44.8-14.421s32.373 5.406 45.023 14.575l-0.223-0.154z" />
<glyph unicode="&#xe923;" glyph-name="glyph_notification" d="M908.8 198.4c-55.368 55.554-89.601 132.203-89.601 216.847 0 0.265 0 0.53 0.001 0.794v-0.041 134.4c-2.459 128.285-83.184 237.106-196.303 280.886l-2.097 0.714v12.8c0 63.623-51.577 115.2-115.2 115.2s-115.2-51.577-115.2-115.2v0-12.8c-109.945-48.266-185.385-156.097-185.6-281.572v-134.428c0.001-0.224 0.001-0.488 0.001-0.753 0-84.644-34.233-161.292-89.609-216.855l0.009 0.009c-10.773-9.581-17.906-23.051-19.186-38.188l-0.014-0.212c-0.001-0.119-0.002-0.261-0.002-0.402 0-28.277 22.923-51.2 51.2-51.2 2.257 0 4.479 0.146 6.659 0.429l-0.257-0.027h716.8c1.922-0.256 4.145-0.402 6.402-0.402 28.277 0 51.2 22.923 51.2 51.2 0 0.141-0.001 0.282-0.002 0.423v-0.022c-1.294 15.349-8.427 28.819-19.142 38.349l-0.058 0.051zM364.8 0c35.312-39.38 86.349-64.043 143.147-64.043 1.425 0 2.847 0.016 4.265 0.046l-0.211-0.004c1.206-0.027 2.628-0.043 4.053-0.043 56.798 0 107.835 24.662 142.988 63.863l0.159 0.18 25.6 19.2h-345.6z" />
<glyph unicode="&#xe924;" glyph-name="glyph_remove" d="M1024 896v-896c0.257-2.042 0.403-4.406 0.403-6.803 0-31.812-25.788-57.6-57.6-57.6-2.398 0-4.761 0.146-7.082 0.431l0.278-0.028h-896c-2.042-0.257-4.406-0.403-6.803-0.403-31.812 0-57.6 25.788-57.6 57.6 0 2.398 0.146 4.761 0.431 7.082l-0.028-0.278v896c-0.257 2.042-0.403 4.406-0.403 6.803 0 31.812 25.788 57.6 57.6 57.6 2.398 0 4.761-0.146 7.082-0.431l-0.278 0.028h896c2.042 0.257 4.406 0.403 6.803 0.403 31.812 0 57.6-25.788 57.6-57.6 0-2.398-0.146-4.761-0.431-7.082l0.028 0.278zM768 384v128h-512v-128z" />
<glyph unicode="&#xe925;" glyph-name="glyph_rightarrow" d="M896 960h-768c-70.692 0-128-57.308-128-128v0-768c0-70.692 57.308-128 128-128v0h768c70.692 0 128 57.308 128 128v0 768c0 70.692-57.308 128-128 128v0zM691.2 422.4l-294.4-281.6h-32c-24.742 0-44.8 20.058-44.8 44.8v0c0.474 12.339 5.244 23.481 12.846 32.053l-0.046-0.053 51.2 38.4 192 192-243.2 243.2c-7.556 8.519-12.326 19.661-12.797 31.904l-0.003 0.096c0 24.742 20.058 44.8 44.8 44.8h19.2c6.4 0 12.8 0 12.8-6.4v0l294.4-281.6c10.771-5.303 18.052-16.201 18.052-28.8s-7.281-23.497-17.864-28.716l-0.188-0.084z" />
<glyph unicode="&#xe926;" glyph-name="glyph_search" d="M1004.8 44.8l-236.8 236.8c-23.55-36.125-53.475-66.051-88.447-88.894l-1.153-0.706 236.8-236.8c11.535-11.313 27.352-18.295 44.8-18.295s33.265 6.982 44.81 18.305l-0.010-0.010c11.313 11.535 18.295 27.352 18.295 44.8s-6.982 33.265-18.305 44.81l0.010-0.010zM800 556.8c0.032 1.889 0.050 4.117 0.050 6.35 0 222.681-180.519 403.2-403.2 403.2s-403.2-180.519-403.2-403.2c0-222.681 180.519-403.2 403.2-403.2 2.233 0 4.461 0.018 6.685 0.054l-0.335-0.004c217.709 3.538 393.262 179.091 396.796 396.465l0.004 0.335z" />
<glyph unicode="&#xe927;" glyph-name="glyph_success" d="M876.8 812.8c-93.633 92.764-222.523 150.080-364.8 150.080s-271.167-57.317-364.84-150.119l0.040 0.039c-92.764-93.633-150.080-222.523-150.080-364.8s57.317-271.167 150.119-364.84l-0.039 0.040c93.633-92.764 222.523-150.080 364.8-150.080s271.167 57.317 364.84 150.119l-0.040-0.039c92.764 93.633 150.080 222.523 150.080 364.8s-57.317 271.167-150.119 364.84l0.039-0.040zM736 544l-243.2-249.6c-8.989-6.081-20.071-9.707-32-9.707s-23.011 3.626-32.204 9.837l0.204-0.13-121.6 128c-7.99 7.071-13.001 17.35-13.001 28.8s5.011 21.729 12.96 28.765l0.041 0.035c7.071 7.99 17.35 13.001 28.8 13.001s21.729-5.011 28.765-12.96l0.035-0.041 96-89.6 217.6 211.2c7.071 7.99 17.35 13.001 28.8 13.001s21.729-5.011 28.765-12.96l0.035-0.041c7.99-7.071 13.001-17.35 13.001-28.8s-5.011-21.729-12.96-28.765l-0.041-0.035z" />
<glyph unicode="&#xe928;" glyph-name="glyph_upload" d="M640 864c-166.069-2.676-307.114-106.968-363.876-253.293l-0.924-2.707h-19.2c-141.385 0-256-114.615-256-256s114.615-256 256-256v0h192v249.6l-64-57.6c-11.8-15.614-30.334-25.6-51.2-25.6-35.346 0-64 28.654-64 64 0 20.866 9.986 39.4 25.439 51.083l0.161 0.117 172.8 166.4 19.2 19.2c7.589 3.050 16.388 4.82 25.6 4.82s18.011-1.769 26.075-4.987l-0.475 0.167 19.2-19.2 172.8-166.4c11.313-11.535 18.295-27.352 18.295-44.8s-6.982-33.265-18.305-44.81l0.010 0.010c-11.735-11.134-27.354-18.276-44.625-19.193l-0.175-0.007c-0.549-0.019-1.194-0.029-1.841-0.029-17.047 0-32.365 7.405-42.911 19.175l-0.048 0.055-64 57.6v-249.6h64c212.077 0 384 171.923 384 384s-171.923 384-384 384v0z" />
<glyph unicode="&#xe929;" glyph-name="glyph_user" d="M512 960c-282.77 0-512-229.23-512-512v0c1.769-161.934 75.725-306.244 191.149-402.51l0.851-0.69c83.2 51.2 192 64 211.2 128 4.238 22.467 6.662 48.312 6.662 74.724 0 5.231-0.095 10.44-0.284 15.626l0.022-0.75c-25.6 6.4-57.6 89.6-64 134.4s-32 12.8-32 57.6c-1.417 4.475-2.234 9.621-2.234 14.958 0 14.157 5.746 26.972 15.033 36.241l0.001 0.001c-38.4 160-19.2 268.8 179.2 281.6 3.164 0.278 6.845 0.437 10.564 0.437 36.011 0 68.548-14.871 91.807-38.806l0.030-0.031c140.8-12.8 108.8-185.6 89.6-249.6s19.2-19.2 12.8-44.8-25.6-57.6-38.4-57.6c-2.155-52.452-23.719-99.485-57.649-134.451l0.049 0.051c-0.167-4.435-0.262-9.645-0.262-14.876 0-26.412 2.424-52.257 7.062-77.326l-0.4 2.602c19.2-64 128-76.8 211.2-128 116.275 96.956 190.231 241.266 191.997 402.9l0.003 0.3c0 282.77-229.23 512-512 512v0z" />
<glyph unicode="&#xe92a;" glyph-name="glyph_view" d="M512 761.6c-3.294 0.070-7.176 0.11-11.067 0.11-219.064 0-408.581-126.509-499.478-310.453l-1.455-3.257c92.351-187.201 281.868-313.71 500.933-313.71 3.891 0 7.773 0.040 11.646 0.119l-0.578-0.009c3.294-0.070 7.176-0.11 11.067-0.11 219.064 0 408.581 126.509 499.478 310.453l1.455 3.257c-92.351 187.201-281.868 313.71-500.933 313.71-3.891 0-7.773-0.040-11.646-0.119l0.578 0.009zM512 275.2c-95.435 0-172.8 77.365-172.8 172.8s77.365 172.8 172.8 172.8c95.435 0 172.8-77.365 172.8-172.8v0c0-95.435-77.365-172.8-172.8-172.8v0zM512 544c-53.019 0-96-42.981-96-96s42.981-96 96-96c53.019 0 96 42.981 96 96v0c0 53.019-42.981 96-96 96v0z" />
<glyph unicode="&#xe92b;" glyph-name="glyph_warning" d="M1011.2 153.6l-416 697.6c-18.81 25.991-49.053 42.705-83.2 42.705s-64.39-16.714-82.994-42.406l-0.206-0.298-416-697.6c-8.676-14.721-13.801-32.433-13.801-51.342 0-54.655 42.819-99.309 96.74-102.246l0.261-0.011h832c54.183 2.949 97.001 47.603 97.001 102.258 0 18.909-5.125 36.621-14.063 51.823l0.261-0.48zM512 128c-35.346 0-64 28.654-64 64s28.654 64 64 64v0c35.346 0 64-28.654 64-64s-28.654-64-64-64v0zM576 403.2c0-35.346-28.654-64-64-64s-64 28.654-64 64v0 128c-0.257 2.042-0.403 4.406-0.403 6.803 0 31.812 25.788 57.6 57.6 57.6 2.398 0 4.761-0.146 7.082-0.431l-0.278 0.028c2.042 0.257 4.406 0.403 6.803 0.403 31.812 0 57.6-25.788 57.6-57.6 0-2.398-0.146-4.761-0.431-7.082l0.028 0.278z" />
<glyph unicode="&#xe92c;" glyph-name="compress" d="M512 410.024v-265.833c0-10.285-3.758-19.186-11.274-26.702s-16.417-11.274-26.702-11.274c-10.285 0-19.186 3.758-26.702 11.274l-85.446 85.446-197.001-197.001c-3.956-3.956-8.505-5.934-13.648-5.934s-9.692 1.978-13.648 5.934l-67.645 67.645c-3.956 3.956-5.934 8.505-5.934 13.648s1.978 9.692 5.934 13.648l197.001 197.001-85.446 85.446c-7.516 7.516-11.274 16.417-11.274 26.702s3.758 19.186 11.274 26.702c7.516 7.516 16.417 11.274 26.702 11.274h265.833c10.285 0 19.186-3.758 26.702-11.274s11.274-16.417 11.274-26.702zM960 808.774c0-5.143-1.978-9.692-5.934-13.648l-197.001-197.001 85.446-85.446c7.516-7.516 11.274-16.417 11.274-26.702s-3.758-19.186-11.274-26.702c-7.516-7.516-16.417-11.274-26.702-11.274h-265.833c-10.285 0-19.186 3.758-26.702 11.274s-11.274 16.417-11.274 26.702v265.833c0 10.285 3.758 19.186 11.274 26.702s16.417 11.274 26.702 11.274c10.285 0 19.186-3.758 26.702-11.274l85.446-85.446 197.001 197.001c3.956 3.956 8.505 5.934 13.648 5.934s9.692-1.978 13.648-5.934l67.645-67.645c3.956-3.956 5.934-8.505 5.934-13.648z" />
<glyph unicode="&#xe92d;" glyph-name="draw-line" d="M928 896c17.673 0 32-14.327 32-32v-192c0-17.673-14.327-32-32-32h-156.16l-451.84-451.84v-156.16c0-17.673-14.327-32-32-32h-192c-17.673 0-32 14.327-32 32v192c0 17.673 14.327 32 32 32h156.032l451.968 451.968v156.032c0 17.673 14.327 32 32 32h192z" />
<glyph unicode="&#xe92e;" glyph-name="draw-rectangle" d="M288 832c17.673 0 32-14.327 32-32v-48h384v48c0 17.673 14.327 32 32 32h192c17.673 0 32-14.327 32-32v-192c0-17.673-14.327-32-32-32h-48v-256h48c17.673 0 32-14.327 32-32v-192c0-17.673-14.327-32-32-32h-192c-17.673 0-32 14.327-32 32v48h-384v-48c0-17.673-14.327-32-32-32h-192c-17.673 0-32 14.327-32 32v192c0 17.673 14.327 32 32 32h48v256h-48c-17.673 0-32 14.327-32 32v192c0 17.673 14.327 32 32 32h192zM704 656h-384v-48c0-17.673-14.327-32-32-32h-48v-256h48c17.673 0 32-14.327 32-32v-48h384v48c0 17.673 14.327 32 32 32h48v256h-48c-17.673 0-32 14.327-32 32v48z" />
<glyph unicode="&#xe92f;" glyph-name="expand" d="M504.417 354.667c0-5.056-1.944-9.528-5.833-13.417l-193.667-193.667 84-84c7.389-7.389 11.083-16.139 11.083-26.25s-3.694-18.861-11.083-26.25c-7.389-7.389-16.139-11.083-26.25-11.083h-261.333c-10.111 0-18.861 3.694-26.25 11.083s-11.083 16.139-11.083 26.25v261.333c0 10.111 3.694 18.861 11.083 26.25s16.139 11.083 26.25 11.083c10.111 0 18.861-3.694 26.25-11.083l84-84 193.667 193.667c3.889 3.889 8.361 5.833 13.417 5.833s9.528-1.944 13.417-5.833l66.5-66.5c3.889-3.889 5.833-8.361 5.833-13.417zM960 858.667v-261.333c0-10.111-3.694-18.861-11.083-26.25s-16.139-11.083-26.25-11.083c-10.111 0-18.861 3.694-26.25 11.083l-84 84-193.667-193.667c-3.889-3.889-8.361-5.833-13.417-5.833s-9.528 1.944-13.417 5.833l-66.5 66.5c-3.889 3.889-5.833 8.361-5.833 13.417s1.944 9.528 5.833 13.417l193.667 193.667-84 84c-7.389 7.389-11.083 16.139-11.083 26.25s3.694 18.861 11.083 26.25c7.389 7.389 16.139 11.083 26.25 11.083h261.333c10.111 0 18.861-3.694 26.25-11.083s11.083-16.139 11.083-26.25z" />
<glyph unicode="&#xe930;" glyph-name="font" d="M454.385 644.583l-91.538-262.5c11.846 0 36.346-0.389 73.5-1.167s65.962-1.167 86.423-1.167c6.821 0 17.051 0.389 30.692 1.167-31.231 98.389-64.256 186.278-99.077 263.667zM64 0l1.077 46.083c8.256 2.722 18.308 5.153 30.154 7.292s22.077 4.181 30.692 6.125c8.615 1.944 17.5 4.764 26.654 8.458s17.141 9.333 23.962 16.917c6.821 7.583 12.385 17.403 16.692 29.458l127.615 359.333 150.769 422.333h68.923c2.872-5.444 4.846-9.528 5.923-12.25l110.385-280c11.846-30.333 30.872-80.403 57.077-150.208s46.667-123.181 61.385-160.125c5.385-13.222 15.795-41.319 31.231-84.292s28.359-75.736 38.769-98.292c7.179-17.5 13.462-28.583 18.846-33.25 6.821-5.833 22.615-11.569 47.385-17.208s39.846-9.625 45.231-11.958c2.154-14.778 3.231-25.861 3.231-33.25 0-1.944-0.090-4.569-0.269-7.875s-0.269-5.736-0.269-7.292c-22.615 0-56.718 1.556-102.308 4.667s-79.872 4.667-102.846 4.667c-27.282 0-65.872-1.361-115.769-4.083s-81.846-4.278-95.846-4.667c0 16.722 0.718 31.889 2.154 45.5l70.538 16.333c0.359 0 2.603 0.486 6.731 1.458s6.91 1.653 8.346 2.042c1.436 0.389 4.038 1.264 7.808 2.625s6.462 2.625 8.077 3.792c1.615 1.167 3.59 2.722 5.923 4.667s3.949 4.083 4.846 6.417c0.897 2.333 1.346 5.056 1.346 8.167 0 6.222-5.564 24.986-16.692 56.292s-24.051 65.819-38.769 103.542c-14.718 37.722-22.256 57.167-22.615 58.333l-242.308 1.167c-9.333-22.556-23.064-60.569-41.192-114.042s-27.192-85.069-27.192-94.792c0-8.556 2.513-15.847 7.538-21.875s12.833-10.792 23.423-14.292c10.59-3.5 19.295-6.125 26.115-7.875s17.051-3.403 30.692-4.958c13.641-1.556 21-2.333 22.077-2.333 0.359-7.389 0.538-18.667 0.538-33.833 0-3.5-0.359-8.75-1.077-15.75-20.821 0-52.141 1.944-93.962 5.833s-73.141 5.833-93.962 5.833c-2.872 0-7.628-0.778-14.269-2.333s-10.5-2.333-11.577-2.333c-28.718-5.444-62.462-8.167-101.231-8.167z" />
<glyph unicode="&#xe931;" glyph-name="highlight" d="M480 64c17.673 0 32-14.327 32-32s-14.327-32-32-32h-384c-17.673 0-32 14.327-32 32s14.327 32 32 32h384zM428.691 265.703l138.564-80-27.236-43.536c-5.849-9.349-16.1-15.028-27.129-15.028h-108.774c-17.673 0-32 14.327-32 32 0 5.617 1.479 11.135 4.287 16l52.287 90.564zM785.954 867.751l123.845-71.502c27.952-16.138 39.513-50.566 26.967-80.304l-178.612-423.35-116.095-47.514c-18.326-7.5-39.093-6.095-56.242 3.806l-111.902 64.607c-17.149 9.901-28.749 27.182-31.417 46.804l-16.899 124.298 277.326 366.358c19.481 25.735 55.076 32.936 83.029 16.798zM762.419 770.488l-194.641-257.128 144.198-83.253 125.359 297.128-74.916 43.253z" />
<glyph unicode="&#xe932;" glyph-name="medal-solid" d="M447.5 698.5l-138.26 230.42c-11.385 18.747-31.692 31.080-54.88 31.080h-222.3c-25.9 0-41.060-29.14-26.22-50.36l222.54-317.92c59.44 55.54 135.040 93.66 219.12 106.78zM991.94 960h-222.3c-22.48 0-43.32-11.8-54.88-31.080l-138.26-230.42c84.080-13.12 159.68-51.24 219.12-106.76l222.54 317.9c14.84 21.22-0.32 50.36-26.22 50.36zM512 640c-194.4 0-352-157.6-352-352s157.6-352 352-352 352 157.6 352 352-157.6 352-352 352zM697.040 325.48l-75.86-73.92 17.94-104.44c3.2-18.72-16.52-33.020-33.3-24.18l-93.82 49.3-93.8-49.3c-16.8-8.9-36.5 5.48-33.3 24.18l17.94 104.44-75.86 73.92c-13.64 13.28-6.1 36.46 12.7 39.18l104.86 15.28 46.86 95.040c4.22 8.56 12.38 12.78 20.56 12.78 8.22 0 16.44-4.28 20.66-12.78l46.86-95.040 104.86-15.28c18.8-2.72 26.34-25.9 12.7-39.18z" />
</font>
</defs>
</svg>
